#!OML:ASF F:\VICON\USERDATA\INSTALL\Justin_Nancy\Justin_Nancy.ASF
:FULLY-SPECIFIED
:DEGREES
315
root 3.10921 17.5693 11.1336 -75.6025 -85.111 79.1083
lowerback 6.50979 1.41894 -4.49826
upperback -0.24044 1.54992 0.318691
thorax -4.03327 0.862712 2.70264
lowerneck -16.8944 -3.42843 -9.00067
upperneck 24.0998 -3.85905 4.89432
head 10.8403 -2.10296 2.70918
rclavicle -7.95139e-016 7.95139e-016
rhumerus -34.7962 -13.4651 -79.5173
rradius 28.2149
rwrist 6.73079
rhand -11.402 12.5589
rfingers 7.12502
rthumb 14.6332 -16.9048
lclavicle -7.95139e-016 7.95139e-016
lhumerus -31.3107 16.3266 79.9786
lradius 25.8574
lwrist -10.7567
lhand -16.4773 25.3035
lfingers 7.12502
lthumb 9.73967 55.0583
rfemur -12.9961 4.95642 16.0297
rtibia 63.349
rfoot 1.37364 6.66927
rtoes 7.63814
lfemur -14.6464 -5.64761 -22.5884
ltibia 20.2109
lfoot -7.22959 -10.6721
ltoes 23.6282
316
root 2.98267 17.5756 11.1694 -79.8893 -85.0133 83.4
lowerback 6.53031 1.45503 -4.79495
upperback -0.302296 1.5706 0.274906
thorax -4.11848 0.881611 2.82049
lowerneck -16.6818 -3.50256 -8.78859
upperneck 23.9531 -3.97092 4.63161
head 10.7438 -2.16706 2.56115
rclavicle 4.17448e-015 8.74653e-015
rhumerus -35.0226 -13.6367 -79.524
rradius 28.8813
rwrist 6.69976
rhand -12.0958 12.2553
rfingers 7.12502
rthumb 13.9647 -17.2557
lclavicle 4.17448e-015 8.74653e-015
lhumerus -31.1628 16.2996 79.8759
lradius 25.0596
lwrist -11.8547
lhand -15.9321 25.4664
lfingers 7.12502
lthumb 10.2656 55.1959
rfemur -14.4639 4.65064 15.8298
rtibia 64.5054
rfoot 0.484385 5.93201
rtoes 7.90214
lfemur -14.0082 -5.48362 -22.9382
ltibia 20.0148
lfoot -7.55417 -10.6164
ltoes 24.0955
317
root 2.84889 17.5783 11.2206 -84.6592 -84.646 87.8897
lowerback 6.71574 1.44343 -5.07814
upperback -0.248991 1.51599 0.13948
thorax -4.16705 0.858176 2.84151
lowerneck -16.4118 -3.56503 -8.81053
upperneck 23.815 -4.0563 4.55066
head 10.6467 -2.22047 2.52373
rclavicle -2.47487e-014 -3.18055e-015
rhumerus -35.0863 -12.8292 -79.8158
rradius 29.4707
rwrist 6.23914
rhand -12.9604 11.8989
rfingers 7.12502
rthumb 13.1313 -17.6676
lclavicle -2.47487e-014 -3.18055e-015
lhumerus -30.9847 15.9622 79.8935
lradius 24.3108
lwrist -12.3073
lhand -16.1999 25.7225
lfingers 7.12502
lthumb 10.0073 55.4646
rfemur -15.6013 4.0788 15.2375
rtibia 65.4317
rfoot -0.489397 5.56071
rtoes 7.2129
lfemur -13.2864 -5.82653 -23.6571
ltibia 20.3539
lfoot -8.37775 -10.0902
ltoes 24.0786
318
root 2.72342 17.5841 11.2675 -86.4894 -84.78 89.7046
lowerback 6.69978 1.29027 -4.9843
upperback -0.227548 1.32463 0.218472
thorax -4.11825 0.76087 2.89197
lowerneck -16.4675 -3.55894 -8.96578
upperneck 23.9212 -4.03978 4.67227
head 10.7016 -2.21516 2.59662
rclavicle 2.27608e-014 -3.18055e-015
rhumerus -34.9749 -13.3905 -79.7303
rradius 29.841
rwrist 7.17827
rhand -12.6638 12.2521
rfingers 7.12502
rthumb 13.4173 -17.2958
lclavicle 2.27608e-014 -3.18055e-015
lhumerus -30.8091 16.2028 79.8444
lradius 23.7257
lwrist -12.8175
lhand -16.5939 25.9798
lfingers 7.12502
lthumb 9.62715 55.7398
rfemur -16.9731 3.37363 15.3225
rtibia 66.2075
rfoot -1.41423 4.96025
rtoes 7.47341
lfemur -12.7669 -6.06004 -23.714
ltibia 20.3729
lfoot -8.86206 -9.9011
ltoes 23.6229
319
root 2.60306 17.5837 11.3056 -87.0946 -85.0609 90.3765
lowerback 6.65275 1.10543 -4.94835
upperback -0.247887 1.09349 0.430045
thorax -4.09599 0.648352 3.11697
lowerneck -16.5977 -3.58952 -9.11999
upperneck 24.0862 -4.04646 4.70397
head 10.7931 -2.23114 2.63328
rclavicle -2.43511e-015 3.97569e-015
rhumerus -34.9437 -14.8321 -79.5488
rradius 30.2013
rwrist 8.49677
rhand -12.4022 12.6827
rfingers 7.12502
rthumb 13.6694 -16.8484
lclavicle -2.43511e-015 3.97569e-015
lhumerus -30.7136 16.2377 79.8777
lradius 23.2614
lwrist -12.8261
lhand -16.4497 25.9242
lfingers 7.12502
lthumb 9.76627 55.6777
rfemur -18.3828 2.90852 15.707
rtibia 66.841
rfoot -2.37741 3.69494
rtoes 8.82868
lfemur -12.387 -6.1338 -23.5812
ltibia 20.4008
lfoot -9.57754 -9.66874
ltoes 21.4401
320
root 2.48247 17.5885 11.34 -87.8787 -85.148 91.0855
lowerback 6.7344 0.918172 -4.99046
upperback -0.198372 0.838627 0.474381
thorax -4.06829 0.521446 3.21304
lowerneck -16.6306 -3.5708 -9.10232
upperneck 23.9348 -4.02845 4.76483
head 10.7427 -2.20985 2.65337
rclavicle 4.72114e-015 1.59028e-015
rhumerus -34.8002 -14.6676 -80.0478
rradius 30.718
rwrist 7.86966
rhand -13.0586 12.1745
rfingers 7.12502
rthumb 13.0367 -17.3981
lclavicle 4.72114e-015 1.59028e-015
lhumerus -30.6634 17.1946 79.6003
lradius 22.7935
lwrist -13.9776
lhand -16.4221 26.0428
lfingers 7.12502
lthumb 9.79294 55.7951
rfemur -19.5842 2.6181 15.8456
rtibia 67.3696
rfoot -3.24757 2.95868
rtoes 12.9755
lfemur -11.8948 -5.51049 -23.6799
ltibia 20.5069
lfoot -9.86741 -10.3201
ltoes 21.5326
321
root 2.36217 17.5759 11.3778 -89.9295 -84.9234 93.0153
lowerback 6.80033 0.764149 -5.03985
upperback -0.145708 0.615632 0.242089
thorax -4.02752 0.406489 3.02181
lowerneck -16.551 -3.51716 -8.889
upperneck 23.9031 -4.05201 4.87112
head 10.7131 -2.19057 2.65315
rclavicle 6.75868e-015 1.15295e-014
rhumerus -34.7127 -13.7577 -80.768
rradius 31.3696
rwrist 6.30763
rhand -14.0852 11.7342
rfingers 7.12502
rthumb 12.047 -17.8991
lclavicle 6.75868e-015 1.15295e-014
lhumerus -30.7956 19.3385 78.7803
lradius 22.2782
lwrist -16.7483
lhand -16.3689 25.9236
lfingers 7.12502
lthumb 9.84425 55.6735
rfemur -20.7494 2.2182 15.5354
rtibia 67.8514
rfoot -4.06531 2.9358
rtoes 17.4059
lfemur -11.3637 -4.35479 -24.2706
ltibia 20.621
lfoot -10.1506 -11.2392
ltoes 20.1603
322
root 2.24485 17.548 11.4153 -90.805 -84.675 93.8629
lowerback 6.837 0.492785 -5.34608
upperback -0.128293 0.231509 0.334658
thorax -3.99757 0.221948 3.33048
lowerneck -16.6604 -3.41884 -9.13004
upperneck 24.0614 -3.77873 4.62889
head 10.7733 -2.11999 2.64562
rclavicle 4.96962e-017 -6.36111e-015
rhumerus -34.5513 -12.2617 -80.9606
rradius 32.0712
rwrist 4.84953
rhand -14.6633 11.4856
rfingers 7.12502
rthumb 11.4894 -18.1796
lclavicle 4.96962e-017 -6.36111e-015
lhumerus -30.9491 20.3781 78.7441
lradius 22.0359
lwrist -17.323
lhand -16.7342 26.0985
lfingers 7.12502
lthumb 9.49178 55.8647
rfemur -21.9851 1.65953 15.4123
rtibia 68.1367
rfoot -5.26451 2.12502
rtoes 17.4123
lfemur -11.1001 -2.37693 -25.0996
ltibia 20.786
lfoot -11.5833 -11.6309
ltoes 9.79392
323
root 2.12745 17.522 11.449 -90.4585 -84.5784 93.6061
lowerback 6.74852 0.0597387 -5.88166
upperback -0.126347 -0.362884 0.785289
thorax -3.88275 -0.0605287 4.16332
lowerneck -16.9802 -3.18607 -9.70047
upperneck 24.3515 -3.16796 4.26974
head 10.9034 -1.94251 2.69981
rclavicle 6.11263e-015 -1.74931e-014
rhumerus -34.1773 -10.4882 -80.8715
rradius 32.5486
rwrist 3.55649
rhand -14.7007 11.4416
rfingers 7.12502
rthumb 11.4534 -18.2256
lclavicle 6.11263e-015 -1.74931e-014
lhumerus -30.9914 19.8546 79.3752
lradius 22.0076
lwrist -15.4738
lhand -17.0783 26.5268
lfingers 7.12502
lthumb 9.15975 56.3079
rfemur -23.3132 0.98249 15.5676
rtibia 68.1501
rfoot -6.35613 1.12123
rtoes 16.3087
lfemur -11.0668 -0.853167 -25.5886
ltibia 21.1208
lfoot -12.9097 -11.8009
ltoes 2.38744
324
root 2.00454 17.5163 11.4943 -91.3662 -84.8349 94.2821
lowerback 6.92662 -0.144604 -5.7201
upperback 0.0206247 -0.622087 1.00593
thorax -3.79852 -0.196956 4.32962
lowerneck -17.1294 -3.13441 -10.0327
upperneck 24.3012 -3.05004 4.5421
head 10.9145 -1.88271 2.87151
rclavicle -5.26779e-015 1.90833e-014
rhumerus -33.9421 -9.7452 -81.0252
rradius 33.0788
rwrist 1.83744
rhand -14.9129 11.7601
rfingers 7.12502
rthumb 11.2487 -17.9183
lclavicle -5.26779e-015 1.90833e-014
lhumerus -30.8396 21.227 79.3455
lradius 21.7279
lwrist -16.1949
lhand -16.9559 26.2291
lfingers 7.12502
lthumb 9.27788 56.005
rfemur -24.1014 0.352155 16.0286
rtibia 67.7696
rfoot -7.13887 0.599706
rtoes 15.6624
lfemur -10.6091 -1.4121 -25.3445
ltibia 21.7301
lfoot -12.7856 -11.7838
ltoes 9.01806
325
root 1.89092 17.5149 11.5374 -93.3218 -85.0227 95.9949
lowerback 7.35752 -0.102815 -5.42446
upperback 0.0624496 -0.571035 0.929562
thorax -4.00625 -0.173092 4.08275
lowerneck -17.1215 -3.23886 -9.98942
upperneck 24.2843 -3.29316 4.84069
head 10.9297 -1.95254 2.93816
rclavicle 5.46658e-015 -1.66979e-014
rhumerus -33.9863 -9.06682 -81.6934
rradius 33.6997
rwrist -1.23144
rhand -16.9129 11.513
rfingers 7.12502
rthumb 9.31936 -18.261
lclavicle 5.46658e-015 -1.66979e-014
lhumerus -30.5415 20.6154 79.4701
lradius 21.513
lwrist -15.9804
lhand -17.0347 25.9673
lfingers 7.12502
lthumb 9.20186 55.7465
rfemur -24.7757 0.146418 16.4786
rtibia 67.1836
rfoot -7.85661 0.140872
rtoes 16.3571
lfemur -10.1335 -3.16477 -24.9942
ltibia 22.5046
lfoot -12.1879 -11.4895
ltoes 22.5176
326
root 1.77034 17.5089 11.5808 -94.5195 -85.6194 97.2256
lowerback 7.39459 -0.147207 -4.63674
upperback 0.0696601 -0.563582 0.952605
thorax -4.02615 -0.184176 3.66088
lowerneck -17.1602 -3.36423 -9.78468
upperneck 24.3812 -3.54424 4.8763
head 10.9904 -2.04581 2.88067
rclavicle -1.44119e-015 7.95139e-016
rhumerus -33.9594 -9.00775 -82.0849
rradius 34.1873
rwrist -2.61142
rhand -17.6599 11.3728
rfingers 7.12502
rthumb 8.59853 -18.4321
lclavicle -1.44119e-015 7.95139e-016
lhumerus -30.1203 19.6024 79.9203
lradius 21.3716
lwrist -15.3283
lhand -17.3369 26.4812
lfingers 7.12502
lthumb 8.91025 56.2731
rfemur -25.7848 -0.0651743 17.3228
rtibia 66.5122
rfoot -8.52267 -0.0546442
rtoes 17.1655
lfemur -10.0167 -4.77561 -24.4381
ltibia 23.2755
lfoot -12.6114 -10.6343
ltoes 28.3812
